<?xml version="1.0" encoding="UTF-8" standalone="no"?>
<!-- Created with Inkscape (http://www.inkscape.org/) -->

<svg
   xmlns:dc="http://purl.org/dc/elements/1.1/"
   xmlns:cc="http://creativecommons.org/ns#"
   xmlns:rdf="http://www.w3.org/1999/02/22-rdf-syntax-ns#"
   xmlns:svg="http://www.w3.org/2000/svg"
   xmlns="http://www.w3.org/2000/svg"
   xmlns:sodipodi="http://sodipodi.sourceforge.net/DTD/sodipodi-0.dtd"
   xmlns:inkscape="http://www.inkscape.org/namespaces/inkscape"
   id="svg2"
   version="1.1"
   inkscape:version="0.48.4 r9939"
   width="800"
   height="130"
   sodipodi:docname="starforce_title.svg"
   inkscape:export-filename="/home/ben0bi/Schreibtisch/StarForce/images/pagetitle.png"
   inkscape:export-xdpi="90"
   inkscape:export-ydpi="90">
  <metadata
     id="metadata8">
    <rdf:RDF>
      <cc:Work
         rdf:about="">
        <dc:format>image/svg+xml</dc:format>
        <dc:type
           rdf:resource="http://purl.org/dc/dcmitype/StillImage" />
        <dc:title></dc:title>
      </cc:Work>
    </rdf:RDF>
  </metadata>
  <defs
     id="defs6" />
  <sodipodi:namedview
     pagecolor="#ffffff"
     bordercolor="#666666"
     borderopacity="1"
     objecttolerance="10"
     gridtolerance="10"
     guidetolerance="10"
     inkscape:pageopacity="0"
     inkscape:pageshadow="2"
     inkscape:window-width="1301"
     inkscape:window-height="744"
     id="namedview4"
     showgrid="false"
     inkscape:zoom="0.54216521"
     inkscape:cx="690.81623"
     inkscape:cy="240.72635"
     inkscape:window-x="65"
     inkscape:window-y="24"
     inkscape:window-maximized="1"
     inkscape:current-layer="svg2"
     showguides="true"
     inkscape:guide-bbox="true" />
  <g
     id="g3960"
     transform="translate(-2.9999994,0)">
    <g
       style="stroke-width:5.76717997;stroke-miterlimit:4;stroke-dasharray:none"
       transform="matrix(0.6935799,0,0,0.6935799,-37.706723,-84.39388)"
       id="g3765">
      <path
         style="fill:none;stroke:#ffc800;stroke-width:5.76717997;stroke-linecap:butt;stroke-linejoin:miter;stroke-miterlimit:4;stroke-opacity:1;stroke-dasharray:none"
         d="m 223.86305,206.07812 0,26.43106 82.49694,0.40047 c 17.45504,-0.95458 25.88888,-21.9742 18.44177,-31.54834 l -14.83753,-20.51283 c -4.13305,-4.7425 -3.66956,-6.11899 4.40518,-6.00706 l 38.0447,-0.40047 -0.40047,58.4687 27.232,-0.40047 -0.14159,-58.47287 37.78582,0.004 -0.40047,-24.02824 -118.65241,-0.40047 c -21.74462,-0.55882 -29.24442,19.51989 -21.91276,32.03765 l 16.01882,19.22259 c 1.73632,2.31137 -0.77688,5.05933 -3.46264,5.11311 z"
         id="path2987"
         inkscape:connector-curvature="0"
         sodipodi:nodetypes="ccccccccccccccccc" />
      <g
         style="stroke-width:5.76717997;stroke-miterlimit:4;stroke-dasharray:none"
         id="g3761">
        <path
           sodipodi:nodetypes="ccccccccc"
           inkscape:connector-curvature="0"
           id="path3757"
           d="m 409.28416,233.17687 28.02032,-83.51479 39.10123,0 27.93714,83.8069 -26.81355,0.0135 -3.37079,-11.68542 -34.15739,0.22472 -4.42249,11.31691 z"
           style="fill:none;stroke:#ffc800;stroke-width:5.76717997;stroke-linecap:butt;stroke-linejoin:miter;stroke-miterlimit:4;stroke-opacity:1;stroke-dasharray:none" />
        <path
           sodipodi:nodetypes="cccc"
           inkscape:connector-curvature="0"
           id="path3759"
           d="m 457.23522,173.59457 -9.64006,26.39891 19.20596,1e-5 z"
           style="fill:none;stroke:#ffc800;stroke-width:5.76717997;stroke-linecap:butt;stroke-linejoin:miter;stroke-miterlimit:4;stroke-opacity:1;stroke-dasharray:none" />
      </g>
    </g>
    <g
       style="stroke-width:5.76717997;stroke-miterlimit:4;stroke-dasharray:none"
       transform="matrix(0.6935799,0,0,0.6935799,89.911978,-84.39388)"
       id="g3824">
      <path
         style="fill:none;stroke:#ffc800;stroke-width:5.76717997;stroke-linecap:butt;stroke-linejoin:miter;stroke-miterlimit:4;stroke-opacity:1;stroke-dasharray:none"
         d="m 335.07987,233.2146 -1.11591,-82.93254 61.31477,-0.12024 c 24.50604,2.61493 31.32025,40.67882 3.67965,50.47459 l 5.35997,4.90783 26.28954,0.38159 0,-55.17078 69.72354,0.18967 -0.73583,22.8131 -41.2697,0.33227 0.26096,15.37063 28.5936,-0.59323 0.59324,17.20379 -28.99717,0.18966 -0.072,27.56664 -66.39192,-0.40133 -29.42124,-26.03175 -0.66378,26.03175 z"
         id="path3771"
         inkscape:connector-curvature="0"
         sodipodi:nodetypes="ccccccccccccccccccc" />
      <path
         style="fill:none;stroke:#ffc800;stroke-width:5.76717997;stroke-linecap:butt;stroke-linejoin:miter;stroke-miterlimit:4;stroke-opacity:1;stroke-dasharray:none"
         d="m 363.50678,171.08144 0.13049,13.89644 19.181,0.13048 c 8.95438,0 8.93038,-13.89644 -0.78289,-13.96168 z"
         id="path3775"
         inkscape:connector-curvature="0"
         sodipodi:nodetypes="ccccc" />
    </g>
    <g
       style="stroke-width:5.76717997;stroke-miterlimit:4;stroke-dasharray:none"
       transform="matrix(0.6935799,0,0,0.6935799,116.10653,-84.39388)"
       id="g3844">
      <path
         sodipodi:type="arc"
         style="fill:none;stroke:#ffc800;stroke-width:5.36226225;stroke-linecap:round;stroke-linejoin:round;stroke-miterlimit:4;stroke-opacity:1;stroke-dasharray:none"
         id="path3777"
         sodipodi:cx="760.69"
         sodipodi:cy="216.6692"
         sodipodi:rx="36.725662"
         sodipodi:ry="35.553566"
         d="m 797.41566,216.6692 c 0,19.6357 -16.44263,35.55357 -36.72566,35.55357 -20.28302,0 -36.72566,-15.91787 -36.72566,-35.55357 0,-19.63569 16.44264,-35.55356 36.72566,-35.55356 20.28303,0 36.72566,15.91787 36.72566,35.55356 z"
         transform="matrix(-0.98271666,0,0,1.1770708,1255.3395,-62.830967)" />
      <path
         sodipodi:type="arc"
         style="fill:none;stroke:#ffc800;stroke-width:15.87751579;stroke-linecap:round;stroke-linejoin:round;stroke-miterlimit:4;stroke-opacity:1;stroke-dasharray:none"
         id="path3777-2"
         sodipodi:cx="760.69"
         sodipodi:cy="216.6692"
         sodipodi:rx="36.725662"
         sodipodi:ry="35.553566"
         d="m 797.41566,216.6692 c 0,19.6357 -16.44263,35.55357 -36.72566,35.55357 -20.28302,0 -36.72566,-15.91787 -36.72566,-35.55357 0,-19.63569 16.44264,-35.55356 36.72566,-35.55356 20.28303,0 36.72566,15.91787 36.72566,35.55356 z"
         transform="matrix(-0.33188972,0,0,0.39752831,760.26195,106.07188)" />
    </g>
    <g
       style="stroke-width:5.76717997;stroke-miterlimit:4;stroke-dasharray:none"
       transform="matrix(0.6935799,0,0,0.6935799,95.911978,-84.39388)"
       id="g3828">
      <path
         style="fill:none;stroke:#ffc800;stroke-width:5.76717997;stroke-linecap:butt;stroke-linejoin:miter;stroke-miterlimit:4;stroke-opacity:1;stroke-dasharray:none"
         d="m 586.45747,235.03203 0.7814,-83.21878 53.13499,-0.3907 c 36.62642,1.31634 30.54133,44.95219 11.13492,50.98615 0.7408,0.35304 30.80355,32.22139 30.80355,32.22139 l -38.61753,0.20659 -28.91169,-26.76285 -0.3907,26.5675 z"
         id="path3801"
         inkscape:connector-curvature="0"
         sodipodi:nodetypes="ccccccccc" />
      <path
         style="fill:none;stroke:#ffc800;stroke-width:5.76717997;stroke-linecap:butt;stroke-linejoin:miter;stroke-miterlimit:4;stroke-opacity:1;stroke-dasharray:none"
         d="m 615.56451,172.32492 0,14.06515 19.52228,-0.01 c 8.45707,0.44305 8.60214,-13.52048 0.17567,-13.88244 z"
         id="path3822"
         inkscape:connector-curvature="0"
         sodipodi:nodetypes="ccccc" />
    </g>
    <path
       sodipodi:nodetypes="ccssccssc"
       inkscape:connector-curvature="0"
       id="path3840"
       d="m 618.15254,78.340831 0,-18.855715 c -6.45943,0.253971 -13.18101,0.155158 -17.77896,-0.713523 -11.74794,-2.219514 -11.49874,-18.708636 0.16351,-19.974877 3.87221,-0.42043 12.46431,-0.294199 17.61544,-0.442199 l 0,-17.656526 c -7.21324,0 -21.64375,0.03039 -27.42928,0.190402 -32.46681,0.897925 -28.758,55.858163 -0.68139,57.085824 2.24452,0.09814 18.69168,0.366614 28.11068,0.366614 z"
       style="fill:none;stroke:#ffc800;stroke-width:4;stroke-linecap:butt;stroke-linejoin:miter;stroke-miterlimit:4;stroke-opacity:1;stroke-dasharray:none" />
    <path
       sodipodi:nodetypes="ccccccccccccc"
       inkscape:connector-curvature="0"
       id="path3842"
       d="m 629.24097,20.697991 0,57.64284 59.07438,0 0.12446,-18.40853 -41.45251,0.0072 0.11722,-6.382156 26.11934,0.04411 0.43996,-8.361209 -26.62734,-0.02171 0.17583,-6.964673 40.42141,-0.102761 0,-17.453203 z"
       style="fill:none;stroke:#ffc800;stroke-width:4;stroke-linecap:butt;stroke-linejoin:miter;stroke-miterlimit:4;stroke-opacity:1;stroke-dasharray:none" />
  </g>
  <flowRoot
     xml:space="preserve"
     id="flowRoot3866"
     style="font-size:40px;font-style:normal;font-variant:normal;font-weight:normal;font-stretch:normal;text-align:center;line-height:125%;letter-spacing:0px;word-spacing:0px;text-anchor:middle;fill:#ffc800;fill-opacity:1;stroke:none;font-family:DejaVu Sans;-inkscape-font-specification:DejaVu Sans"
     transform="matrix(0.72751003,0,0,0.72751003,116.59375,-9.109235)"><flowRegion
       id="flowRegion3868"><rect
         id="rect3870"
         width="763.29047"
         height="54.222828"
         x="12.512959"
         y="126.90407"
         style="font-size:40px;font-style:normal;font-variant:normal;font-weight:normal;font-stretch:normal;text-align:center;text-anchor:middle;fill:#ffc800;fill-opacity:1;stroke:none;font-family:DejaVu Sans;-inkscape-font-specification:DejaVu Sans" /></flowRegion><flowPara
       id="flowPara3872">Die Macht der Sterne</flowPara></flowRoot>  <flowRoot
     xml:space="preserve"
     id="flowRoot3874"
     style="font-size:10px;font-style:normal;font-weight:normal;line-height:125%;letter-spacing:0px;word-spacing:0px;fill:#000000;fill-opacity:1;stroke:none;font-family:Sans"
     transform="translate(0,-120)"><flowRegion
       id="flowRegion3876"><rect
         id="rect3878"
         width="1165.7906"
         height="469.23596"
         x="-125.12959"
         y="-179.61159" /></flowRegion><flowPara
       id="flowPara3880" /></flowRoot></svg>
